<svg width="1080" height="1080" viewBox="0 0 1080 1080" fill="none" xmlns="http://www.w3.org/2000/svg">
  <path d="M435.403 0.00161603H127.923V1080H435.403C778.387 1080 992.082 872.978 992.082 541.341C992.082 207.024 778.387 -0.668358 435.403 0.00161603ZM436.743 911.167H296.736V168.165H434.733C671.874 168.165 820.59 311.54 820.59 540.671C820.59 768.462 672.544 911.167 436.743 911.167Z" fill="#244246" />
  <path d="M570.271 244.363H122V313.895H570.271V244.363Z" fill="#F49645" />
  <path d="M736.433 355.028H122V424.536H736.433V355.028Z" fill="#F49645" />
  <path d="M669.889 476.901H122V546.458H669.889V476.901Z" fill="#F49645" />
  <path d="M487.793 598.798H122V668.355H487.793V598.798Z" fill="#F49645" />
  <path d="M616.152 907.887L1013 1046.95L789.382 732.197L616.152 907.887Z" fill="#244246" />
</svg>
