<?xml version="1.0" standalone="no"?>
<!DOCTYPE svg PUBLIC "-//W3C//DTD SVG 20010904//EN"
 "http://www.w3.org/TR/2001/REC-SVG-20010904/DTD/svg10.dtd">
<svg version="1.0" xmlns="http://www.w3.org/2000/svg"
 width="700.000000pt" height="700.000000pt" viewBox="0 0 700.000000 700.000000"
 preserveAspectRatio="xMidYMid meet">
<metadata>
Created by potrace 1.14, written by Peter Selinger 2001-2017
</metadata>
<g transform="translate(0.000000,700.000000) scale(0.100000,-0.100000)"
fill="#000000" stroke="none">
<path d="M828 6208 c-3 -752 -4 -793 -21 -790 -16 3 -17 -12 -15 -225 3 -211
4 -228 21 -225 15 3 17 -9 17 -133 0 -128 -1 -135 -20 -135 -19 0 -20 -7 -20
-225 0 -218 1 -225 20 -225 19 0 20 -7 20 -170 0 -163 -1 -170 -20 -170 -19 0
-20 -7 -20 -225 0 -218 1 -225 20 -225 19 0 20 -7 20 -170 0 -163 -1 -170 -20
-170 -19 0 -20 -7 -20 -225 0 -218 1 -225 20 -225 20 0 20 -7 20 -1336 l0
-1335 1178 4 c647 2 1193 7 1212 10 19 3 68 9 109 12 41 4 84 9 95 11 11 2 48
6 81 9 33 4 78 10 100 15 22 5 60 12 85 15 35 5 230 47 275 59 6 2 24 6 40 10
69 18 261 77 277 86 10 6 23 10 29 10 6 0 25 6 42 14 18 7 59 24 92 36 96 37
318 144 416 202 137 80 177 106 266 170 l52 38 303 -106 c285 -99 486 -169
897 -314 95 -33 175 -59 176 -58 2 2 -37 59 -86 128 -49 69 -105 148 -124 175
-20 28 -148 208 -285 400 -137 193 -254 359 -260 370 -9 17 1 38 68 140 164
248 280 494 377 795 36 113 98 358 109 434 4 21 8 41 10 45 2 3 7 33 11 66 3
32 8 62 10 65 1 3 6 39 10 80 4 41 9 83 11 93 25 134 25 827 -1 978 -2 13 -6
44 -9 69 -66 550 -252 1086 -519 1490 -48 72 -146 210 -157 220 -3 3 -25 30
-49 60 -174 215 -429 440 -681 601 -271 174 -584 314 -905 403 -101 29 -135
37 -195 51 -3 1 -18 4 -35 8 -16 4 -41 9 -55 12 -14 3 -36 7 -50 10 -47 10
-75 15 -120 21 -25 3 -47 8 -50 9 -3 2 -33 6 -65 10 -33 3 -71 8 -85 10 -14 2
-54 7 -90 10 -36 4 -85 9 -110 12 -25 3 -575 8 -1222 10 l-1178 4 -2 -793z
m2312 -311 c19 -3 58 -8 85 -11 405 -42 811 -183 1124 -391 189 -124 410 -332
510 -479 8 -12 17 -23 21 -26 9 -8 106 -162 133 -211 13 -25 30 -54 36 -65 23
-41 80 -173 109 -254 51 -140 78 -240 117 -440 27 -137 42 -356 39 -580 -2
-176 -5 -228 -19 -325 -2 -16 -7 -52 -11 -80 -37 -297 -164 -649 -327 -910
-78 -125 -494 -547 -618 -628 -153 -99 -370 -202 -543 -259 -80 -25 -281 -77
-326 -84 -19 -3 -42 -7 -50 -9 -37 -10 -202 -32 -315 -41 -141 -12 -1174 -11
-1178 0 -2 6 -3 360 -3 786 l1 775 614 2 c338 1 616 5 618 7 4 4 7 375 4 434
-1 10 -121 12 -578 12 -318 0 -596 0 -619 0 l-41 0 1 170 0 169 1204 0 c662 0
1206 1 1207 3 4 4 7 135 6 316 l-1 132 -1208 0 -1208 0 0 170 0 170 1426 0
1425 0 -2 207 c-1 115 -2 216 -2 226 -1 16 -76 17 -1424 17 l-1423 0 0 133 1
132 883 0 c580 0 883 3 883 10 1 6 3 107 3 225 l2 215 -886 1 -885 0 -1 248 0
248 590 -5 c325 -2 607 -7 626 -10z"/>
</g>
</svg>
