<svg width="24" height="24" viewBox="0 0 24 24" fill="none" xmlns="http://www.w3.org/2000/svg">
<path fill-rule="evenodd" clip-rule="evenodd" d="M5.84291 5.21891C5.57727 2.67927 3.43145 0.330546 1.07455 0H0V1.07455C0.330545 3.43145 2.67927 5.57727 5.21891 5.84291L5.91545 5.91545L5.84291 5.21891ZM22.8409 0C20.484 0.330546 18.3382 2.67927 18.0725 5.21891L18 5.91545L18.6965 5.84291C21.2362 5.57727 23.5849 3.43145 23.9155 1.07455V0H22.8409ZM10.4984 6.20122C5.97769 7.41873 4.47769 13.0265 7.79405 16.3107C11.531 20.011 17.9537 17.3558 17.9777 12.1004C17.9957 8.13322 14.261 5.18777 10.4984 6.20122ZM12.5918 8.75891C13.3151 10.1161 15.0475 11.424 16.5185 11.7245L17.2276 11.8691L16.6025 12.0186C14.3035 12.5673 12.4909 14.3618 12.0448 16.5311L11.9002 17.2353L11.6978 16.4389C11.148 14.274 9.37042 12.5351 7.1706 12.0109L6.54551 11.862L7.11382 11.7633C9.24278 11.3951 11.2997 9.3606 11.7349 7.19127L11.8647 6.54545L12.0709 7.35715C12.1844 7.80387 12.4189 8.43491 12.5918 8.75891ZM1.07455 23.9155C3.43145 23.5849 5.57727 21.2362 5.84291 18.6965L5.91545 18L5.21891 18.0725C2.67927 18.3382 0.330545 20.484 0 22.8409V23.9155H1.07455ZM18.0725 18.6965C18.3382 21.2362 20.484 23.5849 22.8409 23.9155H23.9155V22.8409C23.5849 20.484 21.2362 18.3382 18.6965 18.0725L18 18L18.0725 18.6965Z" fill="#FCB414"/>
</svg>
