<?xml version="1.0" standalone="no"?>
<!DOCTYPE svg PUBLIC "-//W3C//DTD SVG 20010904//EN"
 "http://www.w3.org/TR/2001/REC-SVG-20010904/DTD/svg10.dtd">
<svg version="1.0" xmlns="http://www.w3.org/2000/svg"
 width="998.000000pt" height="998.000000pt" viewBox="0 0 998.000000 998.000000"
 preserveAspectRatio="xMidYMid meet">
<metadata>
Created by potrace 1.14, written by Peter Selinger 2001-2017
</metadata>
<g transform="translate(0.000000,998.000000) scale(0.100000,-0.100000)"
fill="#000000" stroke="none">
<path d="M4737 9974 c-1 -1 -40 -5 -87 -8 -47 -3 -94 -8 -106 -10 -12 -2 -45
-7 -75 -11 -72 -9 -253 -56 -364 -95 -297 -103 -569 -276 -804 -511 -84 -83
-207 -234 -265 -324 -21 -33 -47 -72 -57 -87 -24 -35 -132 -251 -160 -319 -21
-52 -77 -219 -84 -249 -57 -243 -73 -385 -70 -600 2 -96 6 -184 8 -195 2 -11
8 -47 11 -80 4 -33 11 -76 16 -95 5 -19 12 -50 15 -69 3 -19 8 -37 10 -41 2
-3 6 -17 9 -31 24 -127 127 -373 229 -549 27 -47 61 -105 75 -130 13 -25 34
-61 46 -80 11 -19 30 -51 41 -71 22 -40 141 -246 155 -269 13 -20 103 -176
127 -220 25 -44 263 -456 354 -613 38 -65 69 -120 69 -123 0 -3 14 -25 30 -49
17 -24 30 -46 30 -49 0 -3 14 -28 30 -55 l31 -49 -19 -34 c-73 -127 -177 -307
-190 -328 -9 -14 -17 -27 -17 -30 0 -3 -26 -48 -57 -100 -31 -52 -65 -111 -75
-130 -11 -19 -71 -123 -133 -230 -62 -107 -122 -211 -133 -230 -11 -19 -28
-48 -38 -65 -10 -16 -24 -41 -32 -55 -19 -35 -494 -858 -580 -1005 -38 -66
-79 -136 -89 -155 -11 -19 -39 -66 -62 -105 -22 -38 -47 -81 -54 -95 -7 -14
-18 -34 -25 -45 -7 -11 -77 -133 -156 -270 -80 -138 -180 -310 -223 -383 -43
-73 -78 -135 -78 -137 0 -2 -88 -155 -130 -225 -11 -18 -165 -286 -201 -349
-14 -25 -58 -100 -96 -166 -39 -66 -131 -226 -205 -355 -75 -129 -144 -249
-154 -267 -99 -169 -124 -216 -119 -222 4 -3 1008 -6 2232 -6 1656 0 2249 3
2319 12 166 21 352 85 507 174 314 183 624 475 829 780 55 83 214 379 203 379
-2 0 7 24 20 53 23 53 43 114 71 217 24 85 24 86 49 235 20 121 22 168 20 355
-2 118 -5 225 -8 237 -3 11 -8 43 -12 70 -12 87 -66 296 -102 393 -54 144
-124 288 -215 437 -46 74 -90 146 -99 161 -16 26 -206 336 -256 417 -49 79
-328 532 -343 557 -8 13 -53 86 -100 161 -47 76 -89 145 -95 155 -5 9 -41 68
-80 130 -38 62 -75 120 -80 130 -6 9 -30 50 -55 90 -25 40 -50 81 -55 90 -6 9
-22 35 -36 57 -33 52 -319 517 -340 553 -9 15 -40 65 -69 112 -29 47 -129 210
-224 363 -94 153 -178 290 -187 305 -9 15 -48 79 -86 142 -39 63 -123 207
-188 320 -145 253 -137 239 -223 387 -88 150 -114 223 -113 317 1 83 6 112 28
169 27 69 76 139 133 190 60 54 89 71 164 97 63 21 78 21 739 23 391 2 537 -1
537 -9 0 -6 -30 -63 -66 -125 -37 -63 -78 -134 -92 -159 -14 -25 -35 -61 -47
-80 -12 -19 -34 -57 -50 -85 -47 -84 -95 -169 -105 -185 -12 -18 -186 -319
-259 -448 l-53 -93 118 -195 c66 -107 124 -202 129 -212 6 -9 30 -50 55 -90
25 -41 52 -86 61 -100 51 -85 285 -468 360 -591 49 -79 89 -145 89 -147 0 -2
17 -30 37 -61 21 -32 44 -70 53 -84 59 -103 95 -159 101 -159 5 0 198 329 284
485 15 28 31 55 35 60 4 6 41 69 82 140 41 72 110 190 153 264 42 74 85 149
95 165 9 17 59 103 110 191 105 181 95 163 222 385 52 91 118 204 147 252 28
48 51 89 51 92 0 3 15 29 33 58 19 29 47 78 64 108 26 49 51 92 90 155 7 11
24 43 39 70 14 28 32 57 40 66 8 8 14 18 14 21 0 3 31 59 68 124 38 66 214
371 392 679 178 308 334 578 346 600 13 22 44 76 69 120 26 44 55 95 66 113
82 140 199 345 203 360 5 16 -107 17 -2080 17 -1147 0 -2086 -1 -2087 -1z
m313 -6741 c5 -7 10 -15 10 -18 0 -3 24 -42 54 -88 75 -115 182 -282 269 -419
154 -243 193 -305 204 -316 25 -26 52 -156 48 -230 -11 -210 -163 -395 -363
-442 -58 -13 -1242 -21 -1242 -8 0 4 22 45 48 91 27 47 52 91 56 98 3 8 16 30
27 49 12 19 98 168 192 330 93 162 177 306 186 320 8 14 22 39 31 55 28 52 72
130 80 140 4 6 60 102 125 215 65 113 135 236 157 273 l40 69 33 -54 c19 -29
39 -58 45 -65z"/>
</g>
</svg>
